HIERARCHY
ROOT Hips
{
     OFFSET 1.88212 96.90440 -13.34250
     CHANNELS 6 Xposition Yposition Zposition Zrotation Xrotation Yrotation
     JOINT Spine
     {
          OFFSET 0.00000 11.89050 0.00000
          CHANNELS 3 Zrotation Xrotation Yrotation
          JOINT Spine1
          {
               OFFSET -0.00000 25.65740 0.12766
               CHANNELS 3 Zrotation Xrotation Yrotation
               JOINT HEad
               {
                    OFFSET 0.00000 8.73416 0.01134
                    CHANNELS 3 Zrotation Xrotation Yrotation
                    End Site
                    {
                         OFFSET -0.29000 12.77420 2.51395
                    }
               }
               JOINT LeftShoulder1
               {
                    OFFSET 8.99000 -0.36225 -0.22000
                    CHANNELS 3 Zrotation Xrotation Yrotation
                    JOINT LeftArm
                    {
                         OFFSET 10.28270 -0.00338 0.32212
                         CHANNELS 3 Zrotation Xrotation Yrotation
                         JOINT LeftForeArm
                         {
                              OFFSET 32.76690 0.09914 -1.42434
                              CHANNELS 3 Zrotation Xrotation Yrotation
                              JOINT LeftHand
                              {
                                   OFFSET 27.56430 0.08536 1.02216
                                   CHANNELS 3 Zrotation Xrotation Yrotation
                                   End Site
                                   {
                                        OFFSET 16.74430 -0.60000 1.50291
                                   }
                              }
                         }
                    }
               }
               JOINT RightShoulder
               {
                    OFFSET -8.99000 -0.36225 -0.22000
                    CHANNELS 3 Zrotation Xrotation Yrotation
                    JOINT RightArm
                    {
                         OFFSET -10.28270 -0.00338 0.32212
                         CHANNELS 3 Zrotation Xrotation Yrotation
                         JOINT RightForeArm
                         {
                              OFFSET -32.89710 0.09914 -1.42434
                              CHANNELS 3 Zrotation Xrotation Yrotation
                              JOINT RightHand
                              {
                                   OFFSET -27.49210 0.08536 1.02216
                                   CHANNELS 3 Zrotation Xrotation Yrotation
                                   End Site
                                   {
                                        OFFSET -16.63120 -0.60000 1.50291
                                   }
                              }
                         }
                    }
               }
          }
     }
     JOINT LeftUpLeg
     {
          OFFSET 8.94580 -8.66707 0.10165
          CHANNELS 3 Zrotation Xrotation Yrotation
          JOINT LeftLeg
          {
               OFFSET 0.00000 -44.42270 1.37270
               CHANNELS 3 Zrotation Xrotation Yrotation
               JOINT LeftFoot
               {
                    OFFSET -0.25355 -42.09240 -1.46059
                    CHANNELS 3 Zrotation Xrotation Yrotation
                    JOINT LeftToes
                    {
                         OFFSET -0.04000 -4.41509 8.49910
                         CHANNELS 3 Zrotation Xrotation Yrotation
                         End Site
                         {
                              OFFSET 0.08000 -0.04745 9.77979
                         }
                    }
               }
          }
     }
     JOINT RightUpLeg
     {
          OFFSET -8.94580 -8.66707 0.10165
          CHANNELS 3 Zrotation Xrotation Yrotation
          JOINT RightLeg
          {
               OFFSET 0.00000 -44.42270 1.37270
               CHANNELS 3 Zrotation Xrotation Yrotation
               JOINT RightFoot
               {
                    OFFSET 0.25355 -42.09240 -1.46059
                    CHANNELS 3 Zrotation Xrotation Yrotation
                    JOINT RightToes
                    {
                         OFFSET 0.04000 -4.41509 8.49910
                         CHANNELS 3 Zrotation Xrotation Yrotation
                         End Site
                         {
                              OFFSET -0.08000 -0.13745 9.77979
                         }
                    }
               }
          }
     }
}
MOTION
Frames: 19
Frame Time: 0.01667
54.96614 91.47409 -0.10384 20.35559 46.63595 114.04718 -16.83792 34.52739 7.40492 0.00453 0.00507 0.00120 -10.00183 13.62566 8.60159 -0.65264 5.93176 6.35521 -54.18907 -48.47560 -20.38286 -18.18623 8.78196 -76.93736 2.41731 5.92933 -36.63024 9.77783 8.21743 8.60679 63.60406 27.67026 61.94739 0.77274 27.75672 95.59718 18.91551 12.80079 6.93191 43.82725 -24.96670 26.83148 -117.20866 60.07194 131.62331 -30.18812 -0.03580 0.09122 -23.37648 -0.02750 -2.26351 -46.71109 15.44324 32.72614 43.32326 18.69737 -42.01548 -16.95135 -0.00172 -0.00058 -10.46870 -37.66564 17.81779 
54.51829 91.60298 0.59619 17.95730 45.72114 117.32880 -17.82618 34.57199 7.01914 -0.05377 0.09205 0.03333 -9.20559 12.73684 8.05194 0.11919 5.06404 5.89616 -54.31281 -53.80614 -22.14102 -20.53571 15.02239 -76.36252 8.34037 3.13491 -23.74197 10.90528 7.33158 8.19344 64.02072 26.91794 61.87532 0.58885 27.55810 96.38584 19.22798 12.56958 6.20511 36.35387 -25.08930 29.51731 -107.31840 63.10354 125.72198 -30.10069 0.02331 0.01917 -20.58127 -0.13803 -0.80703 -45.77689 14.68350 30.01152 43.85932 18.57229 -42.55207 -17.21921 -0.00018 0.00005 -10.52233 -37.44555 18.07956 
53.99235 92.00552 1.32725 15.82505 44.92105 120.26721 -19.80785 35.51501 7.65533 -0.05708 0.08425 0.02709 -9.08816 12.08947 7.91685 1.24190 3.58707 5.15750 -54.96344 -57.84427 -24.17466 -23.97985 23.83308 -79.25247 10.62529 6.05923 -27.37144 12.32035 5.78231 7.52267 64.51017 26.09420 61.78923 0.35711 27.39209 97.24805 19.10382 12.47060 5.87101 29.58264 -25.44465 32.98359 -98.52457 70.67551 119.00276 -30.00821 -0.01541 0.00424 -4.89792 9.12467 -1.44355 -45.10025 14.03675 27.63631 44.10390 18.20662 -42.92227 -17.40489 0.00154 0.00060 -10.41730 -36.97669 18.51950 
53.45189 92.54187 2.10389 13.91494 44.23994 122.89794 -22.78315 37.11515 9.25318 -0.05752 0.07253 0.01864 -9.48487 11.65779 8.11310 2.63702 1.59376 4.16708 -56.09209 -61.10937 -26.67603 -26.36645 29.75667 -80.61823 16.54522 5.42667 -17.73101 14.03189 3.67780 6.64513 65.04348 25.21113 61.65841 0.08528 27.27190 98.21648 19.28506 12.28986 5.28594 23.32067 -26.14643 37.12180 -82.60210 80.82187 104.01569 -30.02199 -0.00530 0.01293 -13.89492 3.14523 0.87705 -44.58524 13.53541 25.57468 44.00538 17.61990 -43.12562 -17.48123 0.00286 0.00059 -10.20562 -36.27105 19.11758 
52.96584 93.10039 2.91081 12.19187 43.62926 125.25455 -25.35096 37.94049 10.72845 0.01528 -0.00983 -0.01268 -11.35128 12.85792 9.12732 -6.05724 7.68160 2.81765 -62.33765 -68.57000 -44.84573 -28.32665 33.99411 -81.24789 16.53357 6.81029 -21.07692 15.10100 2.60812 5.59913 65.63306 24.14690 61.47382 -0.17213 27.18034 99.21395 19.18418 12.26086 5.02523 17.99992 -27.18153 40.88565 21.80368 90.00000 0.00000 -21.91251 0.19935 0.15924 -4.51110 12.04450 1.99667 -44.10509 13.18594 23.77905 43.58440 16.84495 -43.18203 -17.45042 0.00353 0.00005 -9.96559 -35.40929 19.79905 
52.55610 93.59914 3.71553 10.54663 43.05466 127.48698 -27.76973 38.53444 12.11917 0.00924 -0.00495 -0.00654 -13.20157 14.15949 10.15159 -11.22584 11.99986 2.08627 -75.68874 -73.00823 -66.25443 -30.41408 37.83760 -81.54688 17.30403 7.70429 -21.75152 13.25660 3.99882 4.42882 67.86738 22.28611 63.58411 -0.52760 27.11576 100.48347 19.12097 12.22282 4.74119 12.96110 -28.37963 44.40529 67.16209 81.33429 -44.54958 -15.77723 0.12055 0.11178 -0.65893 16.93184 1.93577 -43.59409 12.93997 22.07669 42.84737 15.97377 -43.15411 -17.29219 0.00428 -0.00060 -9.74458 -34.42954 20.52941 
52.23235 94.00389 4.47503 8.97965 42.44365 129.60304 -30.01044 38.90282 13.40776 0.00675 -0.00266 -0.00535 -15.08639 15.58712 11.26932 -13.98068 14.89265 1.48403 -97.01904 -74.31804 -92.37948 -32.53465 42.57232 -81.08311 18.43614 8.24232 -21.13156 12.29481 5.00437 3.20865 69.62677 20.77465 64.78420 -0.88536 27.05264 101.82860 19.10015 12.22326 4.45107 8.09059 -29.43707 47.28201 76.78733 73.97499 -52.86712 -12.22850 0.06772 0.07646 0.74610 19.06059 2.00555 -42.97644 12.79702 20.43184 41.85709 15.02582 -43.04165 -17.01916 0.00411 -0.00186 -9.56606 -33.38932 21.26596 
51.98533 94.32166 5.15010 7.49597 41.74084 131.60765 -32.02070 39.04234 14.55303 0.00525 -0.00171 -0.00509 -16.98525 17.09896 12.49710 -14.98995 16.65737 0.86007 -117.54320 -72.26305 -115.25060 -35.03497 48.05048 -79.65752 19.69491 8.56409 -19.97702 11.84380 5.70751 2.01794 71.13848 19.41779 65.38734 -1.14867 26.96307 103.09393 19.11497 12.27469 4.18450 3.38567 -30.28692 49.52443 79.33907 67.20964 -53.03829 -11.07603 0.03289 0.03772 1.80815 20.04474 1.98120 -42.21618 12.74639 18.81647 40.68225 14.03113 -42.84190 -16.63668 0.00355 -0.00315 -9.44444 -32.33790 21.95802 
51.79546 94.35693 5.70829 6.01165 40.25881 133.73642 -33.50789 38.98194 15.34641 -0.01970 0.02283 -0.00144 -18.52573 18.28506 13.64048 -14.45061 17.26668 0.15744 -128.72998 -68.14416 -126.39410 -36.46282 53.60957 -78.82994 19.61900 5.18545 -12.96939 12.04802 5.90018 0.93595 72.45662 17.99361 65.72043 -1.08965 26.24579 102.69974 17.73788 10.68566 0.00783 -1.38783 -30.71622 50.72814 75.68568 60.12290 -47.54374 -9.25503 0.03086 -0.00815 2.58891 19.56195 -3.65598 -40.88985 12.67572 17.07542 39.44920 12.68909 -42.73564 -16.14923 0.00265 -0.00403 -10.51902 -27.95256 16.94075 
51.62576 94.31638 6.07014 4.66609 37.98796 135.86580 -33.97433 38.52978 15.46080 0.00080 0.00058 -0.00434 -20.11500 19.47690 14.84175 -13.09594 17.23533 -0.59036 -134.83189 -64.17039 -131.56703 -38.39439 58.38837 -77.38885 20.06824 3.62227 -8.52454 12.40764 5.94824 -0.07553 73.67535 16.54184 65.90103 -0.79521 24.97609 100.80296 17.42282 10.20014 -0.18775 -6.02341 -30.77276 50.96011 71.86902 52.93686 -42.22363 -8.85627 0.01117 -0.00422 4.12397 17.27644 -12.25457 -39.03828 12.46629 15.24653 38.31364 10.98172 -42.76669 -15.65365 0.00150 -0.00390 -11.25554 -24.69544 13.60261 
51.47067 94.24010 6.26260 3.54062 35.00557 137.89363 -33.50590 37.69711 14.96457 0.00267 -0.00188 -0.00537 -21.69552 20.61612 16.07475 -11.16933 16.66730 -1.42889 -138.73746 -60.73638 -133.90039 -40.79255 62.45346 -75.36167 20.58892 3.20766 -5.70464 12.91049 5.81221 -1.07888 74.81824 15.17302 66.00395 -0.49818 23.22768 97.67647 17.89994 10.39109 2.45144 -10.30522 -30.60107 50.37160 68.77747 45.82232 -37.76805 -9.44982 0.00310 0.00719 5.23510 13.17930 -22.00387 -36.75209 12.03380 13.41204 37.33650 8.88425 -42.95437 -15.21810 0.00071 -0.00323 -11.90232 -22.21276 11.37236 
51.32402 94.20346 6.28828 2.96776 30.08851 139.56944 -30.63287 35.69654 13.14767 0.01271 -0.00436 -0.01622 -23.14067 21.65763 17.24847 -8.19614 14.81716 -2.64814 -141.02878 -59.58160 -133.35394 -42.34951 64.61587 -73.88353 20.69044 5.07206 -6.45117 14.34329 5.04462 -1.74560 75.09494 13.78156 65.78044 0.04138 22.28888 95.63724 18.83145 11.60187 6.97267 -12.88777 -30.71190 47.94440 65.46248 39.86082 -33.37033 -12.11155 0.00088 0.03275 4.92746 5.28422 -33.36630 -32.94591 10.40784 10.98319 36.51254 6.95867 -43.31778 -14.77792 -0.00061 -0.00331 -12.60061 -21.76423 11.56341 
51.17409 94.22968 6.16574 3.01658 23.68438 140.73508 -26.07942 32.57840 10.71300 0.01414 -0.00519 -0.01742 -24.45780 22.62426 18.33867 -5.80508 13.21603 -3.57614 -142.65224 -59.16769 -132.54605 -43.02359 65.76964 -73.26115 20.24387 5.06202 -5.50493 15.53598 4.43904 -2.37449 75.36671 12.52598 65.89810 0.70755 21.87065 94.35157 18.90461 11.63648 7.63444 -13.45234 -31.01291 44.34206 61.88012 35.00126 -28.99097 -13.82785 0.00328 0.02549 3.78578 -2.29628 -42.79967 -28.01389 7.59348 8.49999 35.82910 5.13023 -43.84029 -14.38500 0.00010 -0.00197 -13.28394 -20.71826 10.81006 
51.02678 94.31068 5.92685 3.17939 18.18901 141.64041 -22.27030 29.69073 8.72837 0.01487 -0.00546 -0.01767 -25.66853 23.52159 19.34587 -3.97982 11.88574 -4.23224 -143.95302 -59.24872 -131.72565 -42.98073 66.42379 -73.49348 19.85714 6.29223 -6.32186 16.52175 4.01233 -2.96543 75.56452 11.38357 66.16697 1.40814 21.79030 93.71007 19.28781 12.28749 9.67062 -13.30317 -30.26186 40.40709 57.92181 31.18998 -24.48636 -15.89756 0.00061 0.03153 4.99699 1.54318 -39.31195 -23.93923 4.96995 6.84046 35.25987 3.35812 -44.47675 -14.03104 0.00107 -0.00120 -14.05827 -20.27031 10.74703 
50.89928 94.40434 5.59442 3.40677 13.56577 142.31094 -18.87081 26.73264 6.81109 0.01323 -0.00065 -0.01492 -27.05547 24.59541 20.64334 -2.81764 11.18958 -4.45707 -145.08470 -59.65758 -130.97958 -42.36488 66.84013 -74.41818 19.35338 6.40359 -5.91755 17.16661 4.18142 -3.37482 75.69906 10.27557 66.48670 2.09987 21.90580 93.48957 19.17009 12.20091 9.58068 -12.31445 -28.73724 36.36047 53.51529 28.33790 -19.70467 -17.47131 0.00452 0.02786 0.12071 -11.32080 -54.40653 -20.62866 2.69130 5.86024 34.76551 1.64459 -45.16984 -13.65870 0.00206 -0.00116 -14.87400 -19.82899 10.56232 
50.80207 94.49046 5.17121 3.67622 9.74820 142.76120 -15.84714 23.80607 4.98179 0.01076 0.00455 -0.01160 -27.00024 25.89976 20.96336 -2.18865 11.03407 -4.32381 -146.11647 -60.25901 -130.32402 -41.32948 67.14537 -75.86031 18.97539 7.20275 -6.43217 17.50710 4.84899 -3.61484 75.79401 9.19850 66.81137 2.73967 22.14317 93.56918 19.31034 12.52988 10.42919 -10.52020 -26.68051 32.24521 48.59514 26.34008 -14.48425 -18.78794 0.00846 0.02572 3.76033 -3.56957 -46.03462 -17.98177 0.86427 5.42180 34.31710 0.02149 -45.86739 -13.20410 0.00296 -0.00160 -15.73817 -19.67091 10.61618 
50.72686 94.56030 4.65949 3.97164 6.65953 143.00996 -13.17313 20.98356 3.25157 0.00765 0.00966 -0.00791 -25.59423 27.28669 20.32081 -1.98794 11.32416 -3.89624 -147.07094 -60.95252 -129.77058 -39.99120 67.37932 -77.61958 18.60993 7.32968 -6.12369 17.57276 5.92328 -3.68077 75.89242 8.14221 67.13911 3.29720 22.44351 93.79516 19.12321 12.42951 10.13132 -7.97825 -24.28492 28.02839 40.71938 25.39792 -7.57193 -17.42937 0.02327 -0.00704 2.85367 -6.24411 -49.54020 -15.91208 -0.46716 5.39794 33.90424 -1.46436 -46.53355 -12.62304 0.00379 -0.00214 -16.60488 -19.62104 10.67341 
50.65760 94.61620 4.06696 4.28603 4.22250 143.07889 -10.99344 18.68747 1.89444 0.00593 0.01051 -0.00676 -22.58796 28.33080 18.32804 -1.92155 11.60795 -3.45114 -147.94440 -61.66626 -129.30347 -38.45012 67.54542 -79.54749 18.32542 7.82179 -6.34230 17.56915 6.90499 -3.71059 76.01617 7.14807 67.46152 3.73165 22.78577 94.12890 19.12644 12.61214 10.45390 -4.85205 -21.69757 23.59083 33.03437 24.47467 -0.36048 -16.23112 0.02168 -0.00506 3.74119 -4.11335 -47.52986 -14.34558 -1.30865 5.68081 33.53038 -2.78758 -47.14521 -11.90773 0.00456 -0.00247 -17.45493 -19.68076 10.80671 
50.58339 94.65972 3.40849 4.61985 2.36202 142.98997 -9.21812 16.89783 0.83419 0.00403 0.01103 -0.00585 -19.84299 29.09188 16.45856 -1.94848 11.87209 -3.00315 -148.69318 -62.35957 -128.89014 -36.76928 67.61523 -81.51610 18.06787 7.89916 -6.07825 17.51164 7.79464 -3.69040 76.18691 6.21762 67.77015 4.01376 23.15207 94.52361 18.87779 12.51652 10.17852 -1.32883 -19.04929 18.79225 25.29585 23.54164 7.34614 -15.10874 0.02019 -0.00392 3.78851 -4.84120 -48.56162 -13.21405 -1.70729 6.18359 33.20460 -3.93328 -47.69159 -11.07510 0.00516 -0.00251 -18.26115 -19.76743 10.96239 
